<?xml version="1.0" standalone="no"?>
<!DOCTYPE svg PUBLIC "-//W3C//DTD SVG 20010904//EN"
 "http://www.w3.org/TR/2001/REC-SVG-20010904/DTD/svg10.dtd">
<svg version="1.0" xmlns="http://www.w3.org/2000/svg"
 width="341.000000pt" height="352.000000pt" viewBox="0 0 341.000000 352.000000"
 preserveAspectRatio="xMidYMid meet">

<g transform="translate(0.000000,352.000000) scale(0.100000,-0.100000)"
fill="#000000" stroke="none">
<path d="M1792 3327 l-142 -142 42 -42 42 -43 -29 -30 -29 -30 -43 42 -43 43
-350 -350 -350 -350 88 -88 c87 -87 88 -87 120 -76 46 16 137 7 170 -17 35
-26 72 -99 72 -141 0 -19 -6 -49 -14 -68 l-14 -34 91 -90 92 -91 350 350 350
350 -45 45 -44 45 32 32 32 33 42 -48 43 -48 145 145 145 146 -88 88 -89 89
-36 -18 c-72 -37 -170 -15 -218 49 -36 47 -44 126 -19 183 l19 40 -85 85 c-46
46 -86 84 -89 84 -3 0 -69 -64 -148 -143z m76 -360 l42 -43 -30 -29 -30 -29
-45 44 -45 44 27 28 c15 15 29 28 33 28 3 0 25 -19 48 -43z m190 -244 l-32
-33 -48 47 -48 47 32 33 32 33 48 -47 48 -47 -32 -33z"/>
<path d="M347 1273 c-4 -3 -7 -253 -7 -555 l0 -548 70 0 70 0 2 293 3 292 44
3 c25 2 55 1 68 -3 l23 -5 0 -290 0 -290 70 0 70 0 0 550 0 550 -23 5 c-13 4
-43 5 -68 3 l-44 -3 -3 -180 c-2 -155 -5 -182 -19 -192 -18 -14 -63 -17 -100
-7 -23 6 -23 8 -23 189 0 158 -2 184 -16 189 -21 8 -109 8 -117 -1z"/>
<path d="M1064 1272 c-13 -8 -25 -63 -49 -227 -9 -60 -20 -138 -25 -172 -20
-125 -29 -190 -45 -293 -23 -156 -36 -239 -46 -299 -5 -30 -9 -67 -9 -83 0
-28 0 -28 69 -28 l68 0 6 43 c30 227 37 276 43 305 l7 32 78 0 c44 0 79 -1 80
-2 0 -2 12 -86 27 -188 l27 -185 64 -3 c35 -2 68 1 73 6 5 5 5 27 -1 53 -6 24
-22 114 -36 199 -15 85 -31 178 -36 205 -5 28 -27 154 -49 280 -55 314 -62
349 -74 357 -6 4 -45 8 -86 8 -41 0 -80 -4 -86 -8z m125 -372 c12 -85 23 -164
24 -175 2 -18 -5 -20 -55 -23 -32 -2 -58 0 -58 3 0 9 29 219 41 298 6 38 15
65 19 60 4 -4 17 -78 29 -163z"/>
<path d="M1603 1273 c-10 -4 -13 -124 -13 -554 l0 -549 70 0 69 0 3 113 3 112
72 6 c86 6 142 38 173 99 19 37 20 58 20 333 0 327 -2 341 -64 395 -21 18 -54
34 -86 41 -51 11 -224 14 -247 4z m247 -162 c12 -23 14 -529 2 -548 -6 -9 -66
-17 -109 -14 -10 1 -13 65 -13 284 0 156 3 287 7 290 3 4 28 7 54 7 38 0 51
-4 59 -19z"/>
<path d="M2163 1273 c-10 -4 -13 -124 -13 -554 l0 -549 178 2 177 3 3 67 3 67
-108 3 -108 3 -3 217 -2 217 107 3 108 3 0 70 0 69 -87 -3 c-128 -4 -129 -3
-126 127 l3 107 108 3 107 3 0 68 c0 54 -4 70 -16 75 -19 7 -313 7 -331 -1z"/>
<path d="M2673 1274 c-10 -4 -13 -126 -13 -560 l0 -555 68 3 67 3 5 115 c5
104 7 115 24 115 14 0 27 -24 61 -115 l42 -115 68 -3 c37 -2 71 1 75 5 4 4
-13 63 -38 131 l-45 123 25 27 c59 62 59 65 56 401 l-3 308 -25 36 c-42 63
-95 82 -235 84 -66 1 -126 0 -132 -3z m245 -156 c13 -13 18 -534 4 -555 -6 -9
-66 -17 -109 -14 -10 1 -13 65 -13 284 0 156 3 287 7 290 11 12 98 8 111 -5z"/>
</g>
</svg>
